<?xml version="1.0" encoding="UTF-8" standalone="no"?><!DOCTYPE svg PUBLIC "-//W3C//DTD SVG 1.1//EN" "http://www.w3.org/Graphics/SVG/1.1/DTD/svg11.dtd"><svg width="100%" height="100%" viewBox="0 0 8000 8000" version="1.1" xmlns="http://www.w3.org/2000/svg" xmlns:xlink="http://www.w3.org/1999/xlink" xml:space="preserve" xmlns:serif="http://www.serif.com/" style="fill-rule:evenodd;clip-rule:evenodd;stroke-linejoin:round;stroke-miterlimit:2;"><path d="M3844.94,2299.91c214.343,0 418.682,38.948 627.953,102.625c254.304,77.38 581.473,-1058.6 802.238,-944.129c149.478,77.505 -407.403,739.36 -185.668,909.557c157.755,121.086 313.092,-348.15 422.277,-262.872c129.445,101.104 -354.949,509.131 -309.88,801.385c36.562,237.086 141.147,314.891 390.983,566.836c217.909,219.75 1075.11,27.289 1010.35,278.396c-50.234,194.8 -917.773,-143.99 -1057.37,141.619c-109.793,224.629 -220.642,467.431 -450.967,669.787c-263.999,231.941 695.803,1107.33 500.956,1267.69c-221.106,181.971 -527.449,-843.069 -873.426,-856.501c-173.308,-6.727 -329.865,13.611 -469.917,51.48c-197.905,53.514 22.367,458.901 -186.653,464.738c-145.518,4.063 -106.307,-368.46 -286.018,-242.412c-225.852,158.411 -363.014,343.244 -414.603,432.163c-412.884,711.652 -372.158,1358.12 -590.189,1299.09c-259.161,-70.158 207.841,-792.863 244.919,-1311.74c10.764,-150.638 -70.067,-338.685 -184.442,-540.889c-188.01,-332.385 -708.194,232.536 -786.284,108.034c-112.639,-179.584 565.786,-458.558 410.617,-717.079c-72.012,-119.977 -136.373,-237.13 -181.901,-346.983c-97.733,-235.817 -533.188,-100.777 -543.439,-245.299c-10.623,-149.766 480.804,-80.661 489.007,-284.056c6.17,-152.984 60.576,-297.7 132.102,-427.298c105.609,-191.353 -1041.84,-569.62 -957.856,-726.181c89.735,-167.284 986.056,549.967 1184.51,372.819c83.973,-74.96 -39.981,-134.94 60.927,-218.346c112.542,-93.023 154.722,19.001 257.753,-56.658c55.954,-41.09 117.604,-74.339 181.973,-103.725c219.162,-100.054 -400.25,-1174.9 -154.865,-1264.82c245.385,-89.917 226.769,1101.43 665.138,1101.43c82.993,0 166.165,-18.661 251.778,-18.661Z" style="fill:#96146e;"/><path d="M6862.94,3729.22c50.407,108.041 303.139,143.909 371.936,33.811c68.797,-110.099 -422.343,-141.853 -371.936,-33.811Z" style="fill:#96146e;"/><path d="M5644.14,1827.88c49.061,55.865 391.122,-324.536 297.697,-396.537c-93.424,-72.001 -346.759,340.671 -297.697,396.537Z" style="fill:#96146e;"/><path d="M6075.61,1246.85c63.614,23.666 146.436,-185.653 37.228,-172.151c-109.209,13.502 -100.841,148.486 -37.228,172.151Z" style="fill:#96146e;"/><path d="M2032.79,1846.6c-180.631,115.121 432.768,563.985 432.768,563.985c0,0 -252.136,-679.106 -432.768,-563.985Z" style="fill:#96146e;"/><path d="M900.338,2290.1c142.898,72.81 181.907,-14.243 54.572,-79.123c-127.335,-64.881 -197.47,6.312 -54.572,79.123Z" style="fill:#96146e;"/><path d="M1999.5,5264.17c-49.417,-63.816 -437.787,150.948 -360.126,255.509c77.662,104.561 409.544,-191.694 360.126,-255.509Z" style="fill:#96146e;"/><path d="M1313.26,5734.17c-75.782,-9.305 -133.574,120.481 -35.816,116.646c97.758,-3.834 111.599,-107.341 35.816,-116.646Z" style="fill:#96146e;"/><path d="M2593.7,7534.56c179.411,52.306 118.14,-359.699 118.14,-359.699c0,0 -297.552,307.393 -118.14,359.699Z" style="fill:#96146e;"/><path d="M4188.37,5713.59c-88.978,9.964 54.715,295.416 85.555,442.786c30.23,144.451 268.706,30.896 97.269,-248.711c-84.61,-137.996 -93.846,-204.04 -182.824,-194.075Z" style="fill:#96146e;"/><path d="M5756.99,6053.96c-118.074,-12.239 90.227,369.606 198.029,298.763c107.802,-70.843 -38.42,-282.217 -198.029,-298.763Z" style="fill:#96146e;"/><path d="M4000,1212.3c31.583,296.619 98.819,388.692 159.696,93.092c60.877,-295.6 -191.279,-389.712 -159.696,-93.092Z" style="fill:#96146e;"/></svg>